<svg xmlns="http://www.w3.org/2000/svg" xmlns:xlink="http://www.w3.org/1999/xlink" contentStyleType="text/css" height="339px" preserveAspectRatio="none" style="width:712px;height:339px;background:#FFFFFF;" version="1.1" viewBox="0 0 712 339" width="712px" zoomAndPan="magnify"><defs/><g><line style="stroke:#181818;stroke-width:0.5;stroke-dasharray:5.0,5.0;" x1="264.2681" x2="264.2681" y1="34" y2="305"/><line style="stroke:#181818;stroke-width:0.5;stroke-dasharray:5.0,5.0;" x1="389.437" x2="389.437" y1="34" y2="305"/><line style="stroke:#181818;stroke-width:0.5;stroke-dasharray:5.0,5.0;" x1="557.0146" x2="557.0146" y1="34" y2="305"/><rect fill="#E2E2F0" height="28" rx="2.5" ry="2.5" style="stroke:#181818;stroke-width:0.5;" width="63.8135" x="232.3613" y="5"/><text fill="#000000" font-family="Helvetica" font-size="14" lengthAdjust="spacing" textLength="49.8135" x="239.3613" y="22.7803">Pipeline</text><rect fill="#E2E2F0" height="28" rx="2.5" ry="2.5" style="stroke:#181818;stroke-width:0.5;" width="31.8896" x="373.4922" y="5"/><text fill="#000000" font-family="Helvetica" font-size="14" lengthAdjust="spacing" textLength="17.8896" x="380.4922" y="22.7803">TS</text><rect fill="#E2E2F0" height="28" rx="2.5" ry="2.5" style="stroke:#181818;stroke-width:0.5;" width="42.0137" x="536.0078" y="5"/><text fill="#000000" font-family="Helvetica" font-size="14" lengthAdjust="spacing" textLength="28.0137" x="543.0078" y="22.7803">SSE</text><rect fill="#E2E2F0" height="28" rx="2.5" ry="2.5" style="stroke:#181818;stroke-width:0.5;" width="63.8135" x="232.3613" y="305"/><text fill="#000000" font-family="Helvetica" font-size="14" lengthAdjust="spacing" textLength="49.8135" x="239.3613" y="322.7803">Pipeline</text><rect fill="#E2E2F0" height="28" rx="2.5" ry="2.5" style="stroke:#181818;stroke-width:0.5;" width="31.8896" x="373.4922" y="305"/><text fill="#000000" font-family="Helvetica" font-size="14" lengthAdjust="spacing" textLength="17.8896" x="380.4922" y="322.7803">TS</text><rect fill="#E2E2F0" height="28" rx="2.5" ry="2.5" style="stroke:#181818;stroke-width:0.5;" width="42.0137" x="536.0078" y="305"/><text fill="#000000" font-family="Helvetica" font-size="14" lengthAdjust="spacing" textLength="28.0137" x="543.0078" y="322.7803">SSE</text><rect fill="#FEFFDD" height="21" style="stroke:#181818;stroke-width:0.5;" width="74" x="352.1943" y="47"/><text fill="#000000" font-family="Helvetica" font-size="13" lengthAdjust="spacing" textLength="66.4854" x="356.1943" y="61.0103">recognising</text><rect fill="#FEFFDD" height="21" style="stroke:#181818;stroke-width:0.5;" width="28" x="375.3188" y="78"/><text fill="#000000" font-family="Helvetica" font-size="13" lengthAdjust="spacing" textLength="20.2363" x="379.3188" y="92.0103">idle</text><polygon fill="#181818" points="275.2681,119,265.2681,123,275.2681,127,271.2681,123" style="stroke:#181818;stroke-width:1.0;"/><line style="stroke:#181818;stroke-width:1.0;" x1="269.2681" x2="388.437" y1="123" y2="123"/><text fill="#000000" font-family="Helvetica" font-size="13" lengthAdjust="spacing" textLength="39.0317" x="281.2681" y="118.0103">nlInput</text><polygon fill="#181818" points="545.0146,119,555.0146,123,545.0146,127,549.0146,123" style="stroke:#181818;stroke-width:1.0;"/><line style="stroke:#181818;stroke-width:1.0;" x1="389.437" x2="551.0146" y1="123" y2="123"/><text fill="#000000" font-family="Helvetica" font-size="13" lengthAdjust="spacing" textLength="70.8208" x="396.437" y="118.0103">openStream</text><polygon fill="#181818" points="400.437,146,390.437,150,400.437,154,396.437,150" style="stroke:#181818;stroke-width:1.0;"/><line style="stroke:#181818;stroke-width:1.0;" x1="394.437" x2="556.0146" y1="150" y2="150"/><text fill="#000000" font-family="Helvetica" font-size="13" lengthAdjust="spacing" textLength="24.5527" x="406.437" y="145.0103">INIT</text><polygon fill="#181818" points="400.437,173,390.437,177,400.437,181,396.437,177" style="stroke:#181818;stroke-width:1.0;"/><line style="stroke:#181818;stroke-width:1.0;" x1="394.437" x2="556.0146" y1="177" y2="177"/><text fill="#000000" font-family="Helvetica" font-size="13" lengthAdjust="spacing" textLength="143.5776" x="406.437" y="172.0103">STREAMING_CHUNK ""</text><path d="M562.0146,163 L562.0146,186 L705.0146,186 L705.0146,173 L695.0146,163 L562.0146,163 " fill="#FEFFDD" style="stroke:#181818;stroke-width:0.5;"/><path d="M695.0146,163 L695.0146,173 L705.0146,173 L695.0146,163 " fill="#FEFFDD" style="stroke:#181818;stroke-width:0.5;"/><text fill="#000000" font-family="Helvetica" font-size="13" lengthAdjust="spacing" textLength="122.1162" x="568.0146" y="178.0103">sent with X sec delay</text><polygon fill="#181818" points="400.437,206,390.437,210,400.437,214,396.437,210" style="stroke:#181818;stroke-width:1.0;"/><line style="stroke:#181818;stroke-width:1.0;" x1="394.437" x2="556.0146" y1="210" y2="210"/><text fill="#000000" font-family="Helvetica" font-size="13" lengthAdjust="spacing" textLength="122.0718" x="406.437" y="205.0103">STREAMING_DONE</text><rect fill="#FEFFDD" height="21" style="stroke:#181818;stroke-width:0.5;" width="74" x="352.1943" y="223"/><text fill="#000000" font-family="Helvetica" font-size="13" lengthAdjust="spacing" textLength="66.4854" x="356.1943" y="237.0103">recognising</text><polygon fill="#181818" points="377.437,264,387.437,268,377.437,272,381.437,268" style="stroke:#181818;stroke-width:1.0;"/><line style="stroke:#181818;stroke-width:1.0;" x1="264.2681" x2="383.437" y1="268" y2="268"/><text fill="#000000" font-family="Helvetica" font-size="13" lengthAdjust="spacing" textLength="101.1689" x="271.2681" y="263.0103">response(nlInput)</text><path d="M10,254 L10,290 L259,290 L259,264 L249,254 L10,254 " fill="#FEFFDD" style="stroke:#181818;stroke-width:0.5;"/><path d="M249,254 L249,264 L259,264 L249,254 " fill="#FEFFDD" style="stroke:#181818;stroke-width:0.5;"/><text fill="#000000" font-family="Helvetica" font-size="13" lengthAdjust="spacing" textLength="228.2681" x="16" y="269.0103">if this arrives after STREAMING_DONE</text><text fill="#000000" font-family="Helvetica" font-size="13" lengthAdjust="spacing" textLength="168.3779" x="16" y="282.0103">ASR params are not updated</text><!--SRC=[VP71JiCm38RlUGgp0u83Bz03qWI3LOY2bY9nGrRhjXPf4YLk4JmzoSQ0JOXJOl_sxyz9V6NhCU08BNKu6RbnLYeS2TPaPX9kK9tuWFs88EG-GC94AdKaXJrQWKVsPDWU9cjz46gzKi4w8N0pXQGM4AXnlUN8jZ-Mk3MaQWqNbz_c1LXJMZ-9EWNOIScp0EV9QWc4eqfnJcU3iYhhtx6kDwlbVLdTlbojdwexM2pKTcBWVX0542anlh4Cy9pkJNeAW- -AR0kvx6-dwuVgtvtsvFlEGD4x6-diQv7p7OAXBXDm1p9m10o1Pqfd9ydpQ1h0KczW-rkvaZ8TJBv5eVQ7zXC0]--></g></svg>