<?xml version="1.0" encoding="us-ascii" standalone="no"?><svg xmlns="http://www.w3.org/2000/svg" xmlns:xlink="http://www.w3.org/1999/xlink" contentStyleType="text/css" height="781px" preserveAspectRatio="none" style="width:346px;height:781px;background:#FFFFFF;" version="1.1" viewBox="0 0 346 781" width="346px" zoomAndPan="magnify"><defs/><g><ellipse cx="113.75" cy="16" fill="#222222" rx="10" ry="10" style="stroke:#222222;stroke-width:1.0;"/><path d="M19.5,87 L208,87 A12.5,12.5 0 0 1 220.5,99.5 L220.5,111 L7,111 L7,99.5 A12.5,12.5 0 0 1 19.5,87 " fill="#F1F1F1" style="stroke:#F1F1F1;stroke-width:1.0;"/><rect fill="none" height="688" rx="12.5" ry="12.5" style="stroke:#181818;stroke-width:0.5;" width="213.5" x="7" y="87"/><line style="stroke:#181818;stroke-width:0.5;" x1="7" x2="220.5" y1="111" y2="111"/><text fill="#000000" font-family="Helvetica" font-size="14" lengthAdjust="spacing" textLength="22" x="102.75" y="102.7803">DM</text><g id="DM.BeforeSetup"><rect fill="#F1F1F1" height="50" rx="12.5" ry="12.5" style="stroke:#181818;stroke-width:0.5;" width="99" x="45" y="123"/><line style="stroke:#181818;stroke-width:0.5;" x1="45" x2="144" y1="147" y2="147"/><text fill="#000000" font-family="Helvetica" font-size="14" lengthAdjust="spacing" textLength="79" x="55" y="138.7803">BeforeSetup</text></g><g id="DM.GetPages"><rect fill="#F1F1F1" height="50" rx="12.5" ry="12.5" style="stroke:#181818;stroke-width:0.5;" width="83" x="53" y="224"/><line style="stroke:#181818;stroke-width:0.5;" x1="53" x2="136" y1="248" y2="248"/><text fill="#000000" font-family="Helvetica" font-size="14" lengthAdjust="spacing" textLength="63" x="63" y="239.7803">GetPages</text></g><g id="DM.BeforePrepare"><rect fill="#F1F1F1" height="50" rx="12.5" ry="12.5" style="stroke:#181818;stroke-width:0.5;" width="113" x="38" y="311"/><line style="stroke:#181818;stroke-width:0.5;" x1="38" x2="151" y1="335" y2="335"/><text fill="#000000" font-family="Helvetica" font-size="14" lengthAdjust="spacing" textLength="93" x="48" y="326.7803">BeforePrepare</text></g><g id="DM.Prepare"><rect fill="#F1F1F1" height="50" rx="12.5" ry="12.5" style="stroke:#181818;stroke-width:0.5;" width="71" x="59" y="412"/><line style="stroke:#181818;stroke-width:0.5;" x1="59" x2="130" y1="436" y2="436"/><text fill="#000000" font-family="Helvetica" font-size="14" lengthAdjust="spacing" textLength="51" x="69" y="427.7803">Prepare</text></g><g id="DM.Idle"><rect fill="#F1F1F1" height="50" rx="12.5" ry="12.5" style="stroke:#181818;stroke-width:0.5;" width="50" x="69.5" y="513"/><line style="stroke:#181818;stroke-width:0.5;" x1="69.5" x2="119.5" y1="537" y2="537"/><text fill="#000000" font-family="Helvetica" font-size="14" lengthAdjust="spacing" textLength="23" x="83" y="528.7803">Idle</text></g><g id="DM.Active"><rect fill="#F1F1F1" height="50" rx="12.5" ry="12.5" style="stroke:#181818;stroke-width:0.5;" width="58" x="65.5" y="614"/><line style="stroke:#181818;stroke-width:0.5;" x1="65.5" x2="123.5" y1="638" y2="638"/><text fill="#000000" font-family="Helvetica" font-size="14" lengthAdjust="spacing" textLength="38" x="75.5" y="629.7803">Active</text></g><g id="DM.Stopped"><rect fill="#F1F1F1" height="50" rx="12.5" ry="12.5" style="stroke:#181818;stroke-width:0.5;" width="73" x="19" y="715"/><line style="stroke:#181818;stroke-width:0.5;" x1="19" x2="92" y1="739" y2="739"/><text fill="#000000" font-family="Helvetica" font-size="14" lengthAdjust="spacing" textLength="53" x="29" y="730.7803">Stopped</text></g><g id="DM.End"><rect fill="#F1F1F1" height="50" rx="12.5" ry="12.5" style="stroke:#181818;stroke-width:0.5;" width="50" x="109.5" y="715"/><line style="stroke:#181818;stroke-width:0.5;" x1="109.5" x2="159.5" y1="739" y2="739"/><text fill="#000000" font-family="Helvetica" font-size="14" lengthAdjust="spacing" textLength="25" x="122" y="730.7803">End</text></g><g id="DM.Fail"><rect fill="#F1F1F1" height="50" rx="12.5" ry="12.5" style="stroke:#181818;stroke-width:0.5;" width="50" x="161.5" y="123"/><line style="stroke:#181818;stroke-width:0.5;" x1="161.5" x2="211.5" y1="147" y2="147"/><text fill="#000000" font-family="Helvetica" font-size="14" lengthAdjust="spacing" textLength="23" x="175" y="138.7803">Fail</text></g><!--link BeforeSetup to GetPages--><g id="link_BeforeSetup_GetPages"><path d="M94.5,173.47 C94.5,188.82 94.5,202.52 94.5,217.81 " fill="none" id="BeforeSetup-to-GetPages" style="stroke:#181818;stroke-width:1.0;"/><polygon fill="#181818" points="94.5,223.81,98.5,214.81,94.5,218.81,90.5,214.81,94.5,223.81" style="stroke:#181818;stroke-width:1.0;"/><text fill="#000000" font-family="Helvetica" font-size="13" lengthAdjust="spacing" textLength="44" x="95.5" y="202.0103">SETUP</text></g><!--link GetPages to BeforePrepare--><g id="link_GetPages_BeforePrepare"><path d="M94.5,274.13 C94.5,285.52 94.5,293.08 94.5,304.51 " fill="none" id="GetPages-to-BeforePrepare" style="stroke:#181818;stroke-width:1.0;"/><polygon fill="#181818" points="94.5,310.51,98.5,301.51,94.5,305.51,90.5,301.51,94.5,310.51" style="stroke:#181818;stroke-width:1.0;"/></g><!--link BeforePrepare to Prepare--><g id="link_BeforePrepare_Prepare"><path d="M94.5,361.47 C94.5,376.82 94.5,390.52 94.5,405.81 " fill="none" id="BeforePrepare-to-Prepare" style="stroke:#181818;stroke-width:1.0;"/><polygon fill="#181818" points="94.5,411.81,98.5,402.81,94.5,406.81,90.5,402.81,94.5,411.81" style="stroke:#181818;stroke-width:1.0;"/><text fill="#000000" font-family="Helvetica" font-size="13" lengthAdjust="spacing" textLength="63" x="95.5" y="390.0103">PREPARE</text></g><!--link Prepare to Idle--><g id="link_Prepare_Idle"><path d="M94.5,462.47 C94.5,477.82 94.5,491.52 94.5,506.81 " fill="none" id="Prepare-to-Idle" style="stroke:#181818;stroke-width:1.0;"/><polygon fill="#181818" points="94.5,512.81,98.5,503.81,94.5,507.81,90.5,503.81,94.5,512.81" style="stroke:#181818;stroke-width:1.0;"/><text fill="#000000" font-family="Helvetica" font-size="13" lengthAdjust="spacing" textLength="104" x="95.5" y="491.0103">ASRTTS_READY</text></g><!--link Idle to Active--><g id="link_Idle_Active"><path d="M94.5,563.47 C94.5,578.82 94.5,592.52 94.5,607.81 " fill="none" id="Idle-to-Active" style="stroke:#181818;stroke-width:1.0;"/><polygon fill="#181818" points="94.5,613.81,98.5,604.81,94.5,608.81,90.5,604.81,94.5,613.81" style="stroke:#181818;stroke-width:1.0;"/><text fill="#000000" font-family="Helvetica" font-size="13" lengthAdjust="spacing" textLength="43" x="95.5" y="592.0103">START</text></g><!--link Active to Stopped--><g id="link_Active_Stopped"><path d="M84.86,664.47 C78.81,679.82 73.2481,693.9371 67.2281,709.2271 " fill="none" id="Active-to-Stopped" style="stroke:#181818;stroke-width:1.0;"/><polygon fill="#181818" points="65.03,714.81,72.0491,707.9011,66.8617,710.1576,64.6052,704.9703,65.03,714.81" style="stroke:#181818;stroke-width:1.0;"/><text fill="#000000" font-family="Helvetica" font-size="13" lengthAdjust="spacing" textLength="36" x="78.5" y="693.0103">STOP</text></g><!--link Active to End--><g id="link_Active_End"><path d="M110.5,664.27 C113.79,669.94 117.01,676.05 119.5,682 C123.85,692.38 125.8569,698.5216 128.2969,708.8216 " fill="none" id="Active-to-End" style="stroke:#181818;stroke-width:1.0;"/><polygon fill="#181818" points="129.68,714.66,131.4977,704.9803,128.5274,709.7947,123.7131,706.8244,129.68,714.66" style="stroke:#181818;stroke-width:1.0;"/></g><!--link *start* to DM--><g id="link_*start*_DM"><path d="M113.75,26.4 C113.75,37.99 113.75,53.54 113.75,80.9 " fill="none" id="*start*-to-DM" style="stroke:#181818;stroke-width:1.0;"/><polygon fill="#181818" points="113.75,86.9,117.75,77.9,113.75,81.9,109.75,77.9,113.75,86.9" style="stroke:#181818;stroke-width:1.0;"/></g><!--link DM to DM--><g id="link_DM_DM"><path d="M221,364.26 C241.22,372.36 255.5,394.61 255.5,431 C255.5,467.39 246.7897,487.4088 226.5697,495.5088 " fill="none" id="DM-to-DM" style="stroke:#181818;stroke-width:1.0;"/><polygon fill="#181818" points="221,497.74,230.842,498.1064,225.6414,495.8807,227.8671,490.6801,221,497.74" style="stroke:#181818;stroke-width:1.0;"/><text fill="#000000" font-family="Helvetica" font-size="13" lengthAdjust="spacing" textLength="72" x="261.5" y="434.5103">TURNPAGE</text></g><!--SRC=[LO_B2i8m44Nt-OfP2_s1BeH8OtLX3KbSY8W4EqgnBzhHZVZlJjCgkfjxpncOwMz5tVhELv3ZnTzBMZOrPRv2M67vG2hENXncHuYYEIGRaMocAGQtCvcMgH8zUKAku2a05dXfEhH8zpQOAPBsL-nZiChjD1kV9k1Hrnto3VXTdt8mfZa6RPIMHh7qYzTvoKnQuvmz6IMJFGj36QWyK_5WRfqqZi6O0xBKj2tc0zlgVwJgd8lnhQKlIl5w0m00]--></g></svg>